<svg width="16" height="9" viewBox="0 0 16 9" fill="none" xmlns="http://www.w3.org/2000/svg">
<path d="M3.16667 8.5H1.83333C1.47971 8.5 1.14057 8.35952 0.890524 8.10948C0.640476 7.85943 0.5 7.52029 0.5 7.16667V1.83333C0.5 1.47971 0.640476 1.14057 0.890524 0.890524C1.14057 0.640476 1.47971 0.5 1.83333 0.5H3.96M9.83333 0.5H11.1667C11.5203 0.5 11.8594 0.640476 12.1095 0.890524C12.3595 1.14057 12.5 1.47971 12.5 1.83333V7.16667C12.5 7.52029 12.3595 7.85943 12.1095 8.10948C11.8594 8.35952 11.5203 8.5 11.1667 8.5H9.04M15.1667 5.16667V3.83333M7.16667 0.5L4.5 4.5H8.5L5.83333 8.5" stroke="currentColor" stroke-width="1.4" stroke-linecap="round" stroke-linejoin="round"/>
</svg>
