<svg width="22" height="22" viewBox="0 0 22 22" fill="none" xmlns="http://www.w3.org/2000/svg">
<path d="M8.24998 17.4167C3.66665 18.7917 3.66665 15.125 1.83331 14.6667M14.6666 20.1667V16.6192C14.701 16.1821 14.642 15.7427 14.4934 15.3301C14.3448 14.9176 14.1102 14.5415 13.805 14.2267C16.6833 13.9058 19.7083 12.815 19.7083 7.81C19.7081 6.53018 19.2158 5.29943 18.3333 4.3725C18.7512 3.2528 18.7216 2.01515 18.2508 0.916667C18.2508 0.916667 17.1691 0.595834 14.6666 2.27333C12.5657 1.70392 10.351 1.70392 8.24998 2.27333C5.74748 0.595834 4.66581 0.916667 4.66581 0.916667C4.19499 2.01515 4.16545 3.2528 4.58331 4.3725C3.69426 5.30631 3.20146 6.54818 3.20831 7.8375C3.20831 12.8058 6.23331 13.8967 9.11165 14.2542C8.81006 14.5658 8.57747 14.9375 8.42901 15.3449C8.28055 15.7524 8.21955 16.1866 8.24998 16.6192V20.1667" stroke="currentColor" stroke-width="1.4" stroke-linecap="round" stroke-linejoin="round"/>
</svg>
